<svg id="visual" viewBox="0 0 900 600" width="900" height="600" xmlns="http://www.w3.org/2000/svg" xmlns:xlink="http://www.w3.org/1999/xlink" version="1.1"><g stroke-width="1" stroke-linejoin="bevel"><path d="M438 325.9L436 263.1L365 322.9Z" fill="#00101c" stroke="#00101c"></path><path d="M436 263.1L343 274.1L365 322.9Z" fill="#06121b" stroke="#06121b"></path><path d="M385 150.4L291 248.1L343 274.1Z" fill="#06121b" stroke="#06121b"></path><path d="M343 274.1L246 340.9L365 322.9Z" fill="#101519" stroke="#101519"></path><path d="M438 325.9L527 318.9L436 263.1Z" fill="#151618" stroke="#151618"></path><path d="M527 318.9L532 244.1L436 263.1Z" fill="#03111c" stroke="#03111c"></path><path d="M436 263.1L385 150.4L343 274.1Z" fill="#03111c" stroke="#03111c"></path><path d="M443 153.4L385 150.4L436 263.1Z" fill="#0e141a" stroke="#0e141a"></path><path d="M532 244.1L443 153.4L436 263.1Z" fill="#101519" stroke="#101519"></path><path d="M365 322.9L464 433.6L438 325.9Z" fill="#00101c" stroke="#00101c"></path><path d="M438 325.9L464 433.6L527 318.9Z" fill="#121519" stroke="#121519"></path><path d="M337 449.6L464 433.6L365 322.9Z" fill="#121519" stroke="#121519"></path><path d="M291 248.1L246 340.9L343 274.1Z" fill="#121519" stroke="#121519"></path><path d="M246 340.9L337 449.6L365 322.9Z" fill="#151618" stroke="#151618"></path><path d="M556 179.4L451 110.7L443 153.4Z" fill="#03111c" stroke="#03111c"></path><path d="M443 153.4L451 110.7L385 150.4Z" fill="#0e141a" stroke="#0e141a"></path><path d="M532 244.1L556 179.4L443 153.4Z" fill="#151618" stroke="#151618"></path><path d="M615 260.1L556 179.4L532 244.1Z" fill="#06121b" stroke="#06121b"></path><path d="M337 449.6L423 487.3L464 433.6Z" fill="#09121b" stroke="#09121b"></path><path d="M246 340.9L251 430.6L337 449.6Z" fill="#00101c" stroke="#00101c"></path><path d="M337 449.6L349 503.3L423 487.3Z" fill="#03111c" stroke="#03111c"></path><path d="M451 110.7L362 88.7L385 150.4Z" fill="#0c131a" stroke="#0c131a"></path><path d="M385 150.4L245 148.4L291 248.1Z" fill="#00101c" stroke="#00101c"></path><path d="M291 248.1L182 235.1L246 340.9Z" fill="#141618" stroke="#141618"></path><path d="M296 532.3L349 503.3L337 449.6Z" fill="#121519" stroke="#121519"></path><path d="M624 356.9L615 260.1L527 318.9Z" fill="#101519" stroke="#101519"></path><path d="M527 318.9L615 260.1L532 244.1Z" fill="#0e141a" stroke="#0e141a"></path><path d="M566 448.6L527 318.9L464 433.6Z" fill="#09121b" stroke="#09121b"></path><path d="M362 88.7L245 148.4L385 150.4Z" fill="#03111c" stroke="#03111c"></path><path d="M536 509.3L566 448.6L464 433.6Z" fill="#151618" stroke="#151618"></path><path d="M245 148.4L182 235.1L291 248.1Z" fill="#151618" stroke="#151618"></path><path d="M246 340.9L190 431.6L251 430.6Z" fill="#0c131a" stroke="#0c131a"></path><path d="M566 448.6L624 356.9L527 318.9Z" fill="#09121b" stroke="#09121b"></path><path d="M182 235.1L160 333.9L246 340.9Z" fill="#0c131a" stroke="#0c131a"></path><path d="M423 487.3L536 509.3L464 433.6Z" fill="#0c131a" stroke="#0c131a"></path><path d="M566 448.6L639 401.6L624 356.9Z" fill="#0e141a" stroke="#0e141a"></path><path d="M444 600L536 509.3L423 487.3Z" fill="#06121b" stroke="#06121b"></path><path d="M160 333.9L190 431.6L246 340.9Z" fill="#09121b" stroke="#09121b"></path><path d="M251 430.6L296 532.3L337 449.6Z" fill="#171717" stroke="#171717"></path><path d="M615 518.3L639 401.6L566 448.6Z" fill="#09121b" stroke="#09121b"></path><path d="M624 356.9L695 268.1L615 260.1Z" fill="#06121b" stroke="#06121b"></path><path d="M171 496.3L296 532.3L251 430.6Z" fill="#101519" stroke="#101519"></path><path d="M349 503.3L444 600L423 487.3Z" fill="#0e141a" stroke="#0e141a"></path><path d="M556 179.4L556 78.7L451 110.7Z" fill="#09121b" stroke="#09121b"></path><path d="M451 0L368 0L362 88.7Z" fill="#171717" stroke="#171717"></path><path d="M615 260.1L619 147.4L556 179.4Z" fill="#141618" stroke="#141618"></path><path d="M695 268.1L619 147.4L615 260.1Z" fill="#171717" stroke="#171717"></path><path d="M619 147.4L556 78.7L556 179.4Z" fill="#101519" stroke="#101519"></path><path d="M362 88.7L278 59.7L245 148.4Z" fill="#00101c" stroke="#00101c"></path><path d="M245 148.4L156 168.4L182 235.1Z" fill="#0c131a" stroke="#0c131a"></path><path d="M368 0L278 59.7L362 88.7Z" fill="#0e141a" stroke="#0e141a"></path><path d="M154 78.7L156 168.4L245 148.4Z" fill="#101519" stroke="#101519"></path><path d="M182 235.1L87 278.1L160 333.9Z" fill="#09121b" stroke="#09121b"></path><path d="M736 367.9L695 268.1L624 356.9Z" fill="#0e141a" stroke="#0e141a"></path><path d="M451 0L362 88.7L451 110.7Z" fill="#121519" stroke="#121519"></path><path d="M556 78.7L451 0L451 110.7Z" fill="#121519" stroke="#121519"></path><path d="M190 431.6L171 496.3L251 430.6Z" fill="#09121b" stroke="#09121b"></path><path d="M114 417.6L171 496.3L190 431.6Z" fill="#00101c" stroke="#00101c"></path><path d="M348 600L349 503.3L296 532.3Z" fill="#00101c" stroke="#00101c"></path><path d="M348 600L444 600L349 503.3Z" fill="#101519" stroke="#101519"></path><path d="M565 600L615 518.3L536 509.3Z" fill="#141618" stroke="#141618"></path><path d="M536 509.3L615 518.3L566 448.6Z" fill="#09121b" stroke="#09121b"></path><path d="M639 401.6L736 367.9L624 356.9Z" fill="#0e141a" stroke="#0e141a"></path><path d="M293 600L348 600L296 532.3Z" fill="#141618" stroke="#141618"></path><path d="M619 147.4L637 88.7L556 78.7Z" fill="#151618" stroke="#151618"></path><path d="M556 78.7L535 0L451 0Z" fill="#151618" stroke="#151618"></path><path d="M726 110.7L637 88.7L619 147.4Z" fill="#03111c" stroke="#03111c"></path><path d="M85 319.9L114 417.6L160 333.9Z" fill="#0c131a" stroke="#0c131a"></path><path d="M160 333.9L114 417.6L190 431.6Z" fill="#101519" stroke="#101519"></path><path d="M156 168.4L87 278.1L182 235.1Z" fill="#151618" stroke="#151618"></path><path d="M87 278.1L85 319.9L160 333.9Z" fill="#171717" stroke="#171717"></path><path d="M184 600L293 600L296 532.3Z" fill="#06121b" stroke="#06121b"></path><path d="M638 0L535 0L556 78.7Z" fill="#00101c" stroke="#00101c"></path><path d="M368 0L261 0L278 59.7Z" fill="#0e141a" stroke="#0e141a"></path><path d="M278 59.7L154 78.7L245 148.4Z" fill="#171717" stroke="#171717"></path><path d="M156 168.4L72 157.4L87 278.1Z" fill="#06121b" stroke="#06121b"></path><path d="M169 0L154 78.7L278 59.7Z" fill="#09121b" stroke="#09121b"></path><path d="M733 435.6L736 367.9L639 401.6Z" fill="#121519" stroke="#121519"></path><path d="M695 268.1L737 146.4L619 147.4Z" fill="#171717" stroke="#171717"></path><path d="M444 600L565 600L536 509.3Z" fill="#0c131a" stroke="#0c131a"></path><path d="M615 518.3L733 435.6L639 401.6Z" fill="#03111c" stroke="#03111c"></path><path d="M154 78.7L72 157.4L156 168.4Z" fill="#0c131a" stroke="#0c131a"></path><path d="M87 278.1L0 332.9L85 319.9Z" fill="#0c131a" stroke="#0c131a"></path><path d="M733 507.3L733 435.6L615 518.3Z" fill="#0c131a" stroke="#0c131a"></path><path d="M807 276.1L737 146.4L695 268.1Z" fill="#0e141a" stroke="#0e141a"></path><path d="M637 88.7L638 0L556 78.7Z" fill="#09121b" stroke="#09121b"></path><path d="M737 146.4L726 110.7L619 147.4Z" fill="#00101c" stroke="#00101c"></path><path d="M100 524.3L184 600L171 496.3Z" fill="#0e141a" stroke="#0e141a"></path><path d="M171 496.3L184 600L296 532.3Z" fill="#151618" stroke="#151618"></path><path d="M261 0L169 0L278 59.7Z" fill="#121519" stroke="#121519"></path><path d="M154 78.7L65 79.7L72 157.4Z" fill="#121519" stroke="#121519"></path><path d="M743 0L638 0L637 88.7Z" fill="#03111c" stroke="#03111c"></path><path d="M114 417.6L100 524.3L171 496.3Z" fill="#101519" stroke="#101519"></path><path d="M0 450.6L100 524.3L114 417.6Z" fill="#121519" stroke="#121519"></path><path d="M0 332.9L114 417.6L85 319.9Z" fill="#03111c" stroke="#03111c"></path><path d="M565 600L631 600L615 518.3Z" fill="#171717" stroke="#171717"></path><path d="M828 350.9L807 276.1L736 367.9Z" fill="#00101c" stroke="#00101c"></path><path d="M722 600L733 507.3L615 518.3Z" fill="#141618" stroke="#141618"></path><path d="M83 0L65 79.7L154 78.7Z" fill="#121519" stroke="#121519"></path><path d="M0 194.4L0 260.1L87 278.1Z" fill="#121519" stroke="#121519"></path><path d="M0 194.4L87 278.1L72 157.4Z" fill="#101519" stroke="#101519"></path><path d="M0 260.1L0 332.9L87 278.1Z" fill="#0c131a" stroke="#0c131a"></path><path d="M737 146.4L787 67.7L726 110.7Z" fill="#06121b" stroke="#06121b"></path><path d="M736 367.9L807 276.1L695 268.1Z" fill="#06121b" stroke="#06121b"></path><path d="M797 401.6L736 367.9L733 435.6Z" fill="#06121b" stroke="#06121b"></path><path d="M831 515.3L797 401.6L733 435.6Z" fill="#06121b" stroke="#06121b"></path><path d="M0 108.7L0 194.4L72 157.4Z" fill="#121519" stroke="#121519"></path><path d="M0 600L115 600L100 524.3Z" fill="#0e141a" stroke="#0e141a"></path><path d="M100 524.3L115 600L184 600Z" fill="#00101c" stroke="#00101c"></path><path d="M900 331.9L828 350.9L900 444.6Z" fill="#00101c" stroke="#00101c"></path><path d="M797 401.6L828 350.9L736 367.9Z" fill="#101519" stroke="#101519"></path><path d="M0 332.9L0 450.6L114 417.6Z" fill="#151618" stroke="#151618"></path><path d="M169 0L83 0L154 78.7Z" fill="#171717" stroke="#171717"></path><path d="M65 79.7L0 108.7L72 157.4Z" fill="#141618" stroke="#141618"></path><path d="M900 257.1L821 163.4L807 276.1Z" fill="#101519" stroke="#101519"></path><path d="M807 276.1L821 163.4L737 146.4Z" fill="#171717" stroke="#171717"></path><path d="M726 110.7L743 0L637 88.7Z" fill="#121519" stroke="#121519"></path><path d="M631 600L722 600L615 518.3Z" fill="#101519" stroke="#101519"></path><path d="M733 507.3L831 515.3L733 435.6Z" fill="#141618" stroke="#141618"></path><path d="M0 0L0 108.7L65 79.7Z" fill="#06121b" stroke="#06121b"></path><path d="M821 163.4L787 67.7L737 146.4Z" fill="#141618" stroke="#141618"></path><path d="M787 67.7L743 0L726 110.7Z" fill="#101519" stroke="#101519"></path><path d="M0 450.6L0 526.3L100 524.3Z" fill="#141618" stroke="#141618"></path><path d="M788 600L831 515.3L733 507.3Z" fill="#151618" stroke="#151618"></path><path d="M722 600L788 600L733 507.3Z" fill="#121519" stroke="#121519"></path><path d="M900 444.6L828 350.9L797 401.6Z" fill="#03111c" stroke="#03111c"></path><path d="M828 350.9L900 331.9L807 276.1Z" fill="#03111c" stroke="#03111c"></path><path d="M900 79.7L819 0L787 67.7Z" fill="#171717" stroke="#171717"></path><path d="M900 331.9L900 257.1L807 276.1Z" fill="#0e141a" stroke="#0e141a"></path><path d="M83 0L0 0L65 79.7Z" fill="#121519" stroke="#121519"></path><path d="M0 526.3L0 600L100 524.3Z" fill="#121519" stroke="#121519"></path><path d="M787 67.7L819 0L743 0Z" fill="#141618" stroke="#141618"></path><path d="M900 79.7L787 67.7L821 163.4Z" fill="#121519" stroke="#121519"></path><path d="M900 257.1L900 173.4L821 163.4Z" fill="#03111c" stroke="#03111c"></path><path d="M831 515.3L900 444.6L797 401.6Z" fill="#06121b" stroke="#06121b"></path><path d="M900 492.3L900 444.6L831 515.3Z" fill="#06121b" stroke="#06121b"></path><path d="M900 600L900 492.3L831 515.3Z" fill="#00101c" stroke="#00101c"></path><path d="M900 173.4L900 79.7L821 163.4Z" fill="#151618" stroke="#151618"></path><path d="M900 79.7L900 0L819 0Z" fill="#06121b" stroke="#06121b"></path><path d="M788 600L900 600L831 515.3Z" fill="#151618" stroke="#151618"></path></g></svg>