<svg id="visual" viewBox="0 0 2000 1600" width="2000" height="1600" xmlns="http://www.w3.org/2000/svg" xmlns:xlink="http://www.w3.org/1999/xlink" version="1.1"><g stroke-width="1" stroke-linejoin="bevel"><path d="M923.9 824L1081.1 763L852.9 600Z" fill="#112e42" stroke="#112e42"></path><path d="M1081.1 763L1144.1 564L852.9 600Z" fill="#19435d" stroke="#19435d"></path><path d="M1144.1 564L1080.1 439L852.9 600Z" fill="#205a7a" stroke="#205a7a"></path><path d="M1080.1 439L907.9 404L852.9 600Z" fill="#112e42" stroke="#112e42"></path><path d="M907.9 404L693.7 561L852.9 600Z" fill="#1d4e6b" stroke="#1d4e6b"></path><path d="M852.9 600L632.7 772L923.9 824Z" fill="#15384f" stroke="#15384f"></path><path d="M693.7 561L632.7 772L852.9 600Z" fill="#112e42" stroke="#112e42"></path><path d="M1081.1 763L1319.3 625L1144.1 564Z" fill="#19435d" stroke="#19435d"></path><path d="M1144.1 564L1351.3 403L1080.1 439Z" fill="#246688" stroke="#246688"></path><path d="M695.7 987L858.9 1038L923.9 824Z" fill="#0c2435" stroke="#0c2435"></path><path d="M923.9 824L1138.1 1028L1081.1 763Z" fill="#00101c" stroke="#00101c"></path><path d="M1081.1 763L1363.3 796L1319.3 625Z" fill="#1d4e6b" stroke="#1d4e6b"></path><path d="M858.9 1038L1138.1 1028L923.9 824Z" fill="#277297" stroke="#277297"></path><path d="M632.7 772L695.7 987L923.9 824Z" fill="#0c2435" stroke="#0c2435"></path><path d="M1138.1 1028L1363.3 796L1081.1 763Z" fill="#277297" stroke="#277297"></path><path d="M907.9 404L649.7 374L693.7 561Z" fill="#1d4e6b" stroke="#1d4e6b"></path><path d="M693.7 561L445.4 598L632.7 772Z" fill="#297ea6" stroke="#297ea6"></path><path d="M1089.1 230L850.9 239L907.9 404Z" fill="#277297" stroke="#277297"></path><path d="M907.9 404L850.9 239L649.7 374Z" fill="#205a7a" stroke="#205a7a"></path><path d="M1089.1 230L907.9 404L1080.1 439Z" fill="#15384f" stroke="#15384f"></path><path d="M1351.3 403L1089.1 230L1080.1 439Z" fill="#297ea6" stroke="#297ea6"></path><path d="M1319.3 625L1351.3 403L1144.1 564Z" fill="#00101c" stroke="#00101c"></path><path d="M1533.6 602L1351.3 403L1319.3 625Z" fill="#246688" stroke="#246688"></path><path d="M1138.1 1028L1333.3 1020L1363.3 796Z" fill="#19435d" stroke="#19435d"></path><path d="M635.7 1174L904.9 1187L858.9 1038Z" fill="#19435d" stroke="#19435d"></path><path d="M858.9 1038L904.9 1187L1138.1 1028Z" fill="#277297" stroke="#277297"></path><path d="M1138.1 1028L1337.3 1184L1333.3 1020Z" fill="#277297" stroke="#277297"></path><path d="M465.4 392L445.4 598L693.7 561Z" fill="#277297" stroke="#277297"></path><path d="M632.7 772L416.4 831L695.7 987Z" fill="#246688" stroke="#246688"></path><path d="M904.9 1187L1107.1 1205L1138.1 1028Z" fill="#1d4e6b" stroke="#1d4e6b"></path><path d="M445.4 598L416.4 831L632.7 772Z" fill="#297ea6" stroke="#297ea6"></path><path d="M695.7 987L635.7 1174L858.9 1038Z" fill="#19435d" stroke="#19435d"></path><path d="M1568.6 788L1533.6 602L1363.3 796Z" fill="#297ea6" stroke="#297ea6"></path><path d="M1363.3 796L1533.6 602L1319.3 625Z" fill="#1d4e6b" stroke="#1d4e6b"></path><path d="M649.7 374L465.4 392L693.7 561Z" fill="#15384f" stroke="#15384f"></path><path d="M445.4 598L253.2 793L416.4 831Z" fill="#205a7a" stroke="#205a7a"></path><path d="M460.4 204L465.4 392L649.7 374Z" fill="#15384f" stroke="#15384f"></path><path d="M407.4 989L635.7 1174L695.7 987Z" fill="#15384f" stroke="#15384f"></path><path d="M904.9 1187L1117.1 1375L1107.1 1205Z" fill="#0c2435" stroke="#0c2435"></path><path d="M848.9 0L638.7 192L850.9 239Z" fill="#081a28" stroke="#081a28"></path><path d="M850.9 239L638.7 192L649.7 374Z" fill="#112e42" stroke="#112e42"></path><path d="M1537.6 998L1568.6 788L1363.3 796Z" fill="#277297" stroke="#277297"></path><path d="M1107.1 1205L1337.3 1184L1138.1 1028Z" fill="#246688" stroke="#246688"></path><path d="M1333.3 1020L1537.6 998L1363.3 796Z" fill="#00101c" stroke="#00101c"></path><path d="M416.4 831L407.4 989L695.7 987Z" fill="#297ea6" stroke="#297ea6"></path><path d="M1351.3 403L1364.3 190L1089.1 230Z" fill="#081a28" stroke="#081a28"></path><path d="M1089.1 230L848.9 0L850.9 239Z" fill="#00101c" stroke="#00101c"></path><path d="M1588.6 362L1364.3 190L1351.3 403Z" fill="#277297" stroke="#277297"></path><path d="M1337.3 1184L1537.6 998L1333.3 1020Z" fill="#205a7a" stroke="#205a7a"></path><path d="M638.7 192L460.4 204L649.7 374Z" fill="#112e42" stroke="#112e42"></path><path d="M465.4 392L260.2 574L445.4 598Z" fill="#277297" stroke="#277297"></path><path d="M1102.1 0L848.9 0L1089.1 230Z" fill="#15384f" stroke="#15384f"></path><path d="M638.7 192L633.7 0L460.4 204Z" fill="#081a28" stroke="#081a28"></path><path d="M1364.3 190L1102.1 0L1089.1 230Z" fill="#297ea6" stroke="#297ea6"></path><path d="M853.9 1434L1117.1 1375L904.9 1187Z" fill="#15384f" stroke="#15384f"></path><path d="M1107.1 1205L1117.1 1375L1337.3 1184Z" fill="#15384f" stroke="#15384f"></path><path d="M1772.8 636L1588.6 362L1533.6 602Z" fill="#081a28" stroke="#081a28"></path><path d="M1533.6 602L1588.6 362L1351.3 403Z" fill="#246688" stroke="#246688"></path><path d="M407.4 989L448.4 1175L635.7 1174Z" fill="#277297" stroke="#277297"></path><path d="M635.7 1174L694.7 1386L904.9 1187Z" fill="#19435d" stroke="#19435d"></path><path d="M196.2 411L260.2 574L465.4 392Z" fill="#00101c" stroke="#00101c"></path><path d="M416.4 831L253.2 793L407.4 989Z" fill="#0c2435" stroke="#0c2435"></path><path d="M407.4 989L238.2 1021L448.4 1175Z" fill="#081a28" stroke="#081a28"></path><path d="M260.2 574L253.2 793L445.4 598Z" fill="#0c2435" stroke="#0c2435"></path><path d="M441.4 1409L694.7 1386L635.7 1174Z" fill="#081a28" stroke="#081a28"></path><path d="M694.7 1386L853.9 1434L904.9 1187Z" fill="#19435d" stroke="#19435d"></path><path d="M848.9 0L633.7 0L638.7 192Z" fill="#081a28" stroke="#081a28"></path><path d="M1588.6 362L1579.6 222L1364.3 190Z" fill="#00101c" stroke="#00101c"></path><path d="M1364.3 190L1360.3 0L1102.1 0Z" fill="#1d4e6b" stroke="#1d4e6b"></path><path d="M1553.6 0L1360.3 0L1364.3 190Z" fill="#205a7a" stroke="#205a7a"></path><path d="M0 973L238.2 1021L253.2 793Z" fill="#081a28" stroke="#081a28"></path><path d="M253.2 793L238.2 1021L407.4 989Z" fill="#19435d" stroke="#19435d"></path><path d="M448.4 1175L441.4 1409L635.7 1174Z" fill="#205a7a" stroke="#205a7a"></path><path d="M1334.3 1439L1551.6 1226L1337.3 1184Z" fill="#0c2435" stroke="#0c2435"></path><path d="M1337.3 1184L1551.6 1226L1537.6 998Z" fill="#277297" stroke="#277297"></path><path d="M1813.8 790L1772.8 636L1568.6 788Z" fill="#205a7a" stroke="#205a7a"></path><path d="M1568.6 788L1772.8 636L1533.6 602Z" fill="#15384f" stroke="#15384f"></path><path d="M1745.8 1030L1568.6 788L1537.6 998Z" fill="#00101c" stroke="#00101c"></path><path d="M1588.6 362L1798.8 174L1579.6 222Z" fill="#112e42" stroke="#112e42"></path><path d="M244.2 184L196.2 411L465.4 392Z" fill="#297ea6" stroke="#297ea6"></path><path d="M260.2 574L0 596L253.2 793Z" fill="#112e42" stroke="#112e42"></path><path d="M244.2 184L465.4 392L460.4 204Z" fill="#081a28" stroke="#081a28"></path><path d="M1117.1 1375L1334.3 1439L1337.3 1184Z" fill="#19435d" stroke="#19435d"></path><path d="M1103.1 1600L1334.3 1439L1117.1 1375Z" fill="#112e42" stroke="#112e42"></path><path d="M1551.6 1226L1745.8 1030L1537.6 998Z" fill="#1d4e6b" stroke="#1d4e6b"></path><path d="M1745.8 1030L1813.8 790L1568.6 788Z" fill="#19435d" stroke="#19435d"></path><path d="M633.7 0L437.4 0L460.4 204Z" fill="#00101c" stroke="#00101c"></path><path d="M437.4 0L244.2 184L460.4 204Z" fill="#112e42" stroke="#112e42"></path><path d="M205.2 1198L441.4 1409L448.4 1175Z" fill="#15384f" stroke="#15384f"></path><path d="M663.7 1600L850.9 1600L853.9 1434Z" fill="#081a28" stroke="#081a28"></path><path d="M2000 637L1806.8 407L1772.8 636Z" fill="#0c2435" stroke="#0c2435"></path><path d="M1772.8 636L1806.8 407L1588.6 362Z" fill="#081a28" stroke="#081a28"></path><path d="M1579.6 222L1553.6 0L1364.3 190Z" fill="#246688" stroke="#246688"></path><path d="M1798.8 174L1553.6 0L1579.6 222Z" fill="#00101c" stroke="#00101c"></path><path d="M238.2 1021L205.2 1198L448.4 1175Z" fill="#1d4e6b" stroke="#1d4e6b"></path><path d="M0 1169L205.2 1198L238.2 1021Z" fill="#1d4e6b" stroke="#1d4e6b"></path><path d="M663.7 1600L853.9 1434L694.7 1386Z" fill="#112e42" stroke="#112e42"></path><path d="M853.9 1434L1103.1 1600L1117.1 1375Z" fill="#0c2435" stroke="#0c2435"></path><path d="M850.9 1600L1103.1 1600L853.9 1434Z" fill="#246688" stroke="#246688"></path><path d="M1334.3 1439L1542.6 1423L1551.6 1226Z" fill="#0c2435" stroke="#0c2435"></path><path d="M1551.6 1226L1811.8 1203L1745.8 1030Z" fill="#15384f" stroke="#15384f"></path><path d="M1348.3 1600L1542.6 1423L1334.3 1439Z" fill="#277297" stroke="#277297"></path><path d="M441.4 1409L663.7 1600L694.7 1386Z" fill="#297ea6" stroke="#297ea6"></path><path d="M0 398L0 596L196.2 411Z" fill="#112e42" stroke="#112e42"></path><path d="M196.2 411L0 596L260.2 574Z" fill="#205a7a" stroke="#205a7a"></path><path d="M0 596L0 823L253.2 793Z" fill="#1d4e6b" stroke="#1d4e6b"></path><path d="M1806.8 407L1798.8 174L1588.6 362Z" fill="#112e42" stroke="#112e42"></path><path d="M1103.1 1600L1348.3 1600L1334.3 1439Z" fill="#15384f" stroke="#15384f"></path><path d="M2000 967L2000 804L1813.8 790Z" fill="#00101c" stroke="#00101c"></path><path d="M1740.8 1439L1811.8 1203L1551.6 1226Z" fill="#277297" stroke="#277297"></path><path d="M1740.8 1439L1551.6 1226L1542.6 1423Z" fill="#112e42" stroke="#112e42"></path><path d="M0 823L0 973L253.2 793Z" fill="#081a28" stroke="#081a28"></path><path d="M0 164L0 398L196.2 411Z" fill="#297ea6" stroke="#297ea6"></path><path d="M0 164L196.2 411L244.2 184Z" fill="#081a28" stroke="#081a28"></path><path d="M437.4 0L209.2 0L244.2 184Z" fill="#00101c" stroke="#00101c"></path><path d="M205.2 1198L188.2 1368L441.4 1409Z" fill="#246688" stroke="#246688"></path><path d="M441.4 1409L448.4 1600L663.7 1600Z" fill="#15384f" stroke="#15384f"></path><path d="M0 1366L188.2 1368L205.2 1198Z" fill="#277297" stroke="#277297"></path><path d="M1813.8 790L2000 637L1772.8 636Z" fill="#15384f" stroke="#15384f"></path><path d="M1806.8 407L2000 204L1798.8 174Z" fill="#081a28" stroke="#081a28"></path><path d="M2000 804L2000 637L1813.8 790Z" fill="#0c2435" stroke="#0c2435"></path><path d="M2000 967L1813.8 790L1745.8 1030Z" fill="#277297" stroke="#277297"></path><path d="M257.2 1600L448.4 1600L441.4 1409Z" fill="#297ea6" stroke="#297ea6"></path><path d="M1811.8 1203L2000 967L1745.8 1030Z" fill="#297ea6" stroke="#297ea6"></path><path d="M0 973L0 1169L238.2 1021Z" fill="#246688" stroke="#246688"></path><path d="M2000 637L2000 406L1806.8 407Z" fill="#246688" stroke="#246688"></path><path d="M1554.6 1600L1740.8 1439L1542.6 1423Z" fill="#112e42" stroke="#112e42"></path><path d="M1811.8 1203L2000 1226L2000 967Z" fill="#00101c" stroke="#00101c"></path><path d="M1348.3 1600L1554.6 1600L1542.6 1423Z" fill="#00101c" stroke="#00101c"></path><path d="M1798.8 174L1804.8 0L1553.6 0Z" fill="#15384f" stroke="#15384f"></path><path d="M2000 0L1804.8 0L1798.8 174Z" fill="#00101c" stroke="#00101c"></path><path d="M209.2 0L0 164L244.2 184Z" fill="#112e42" stroke="#112e42"></path><path d="M2000 406L2000 204L1806.8 407Z" fill="#277297" stroke="#277297"></path><path d="M0 1600L257.2 1600L188.2 1368Z" fill="#205a7a" stroke="#205a7a"></path><path d="M188.2 1368L257.2 1600L441.4 1409Z" fill="#19435d" stroke="#19435d"></path><path d="M2000 1378L1811.8 1203L1740.8 1439Z" fill="#277297" stroke="#277297"></path><path d="M2000 1378L2000 1226L1811.8 1203Z" fill="#297ea6" stroke="#297ea6"></path><path d="M0 1169L0 1366L205.2 1198Z" fill="#19435d" stroke="#19435d"></path><path d="M209.2 0L0 0L0 164Z" fill="#246688" stroke="#246688"></path><path d="M1554.6 1600L1779.8 1600L1740.8 1439Z" fill="#0c2435" stroke="#0c2435"></path><path d="M2000 204L2000 0L1798.8 174Z" fill="#1d4e6b" stroke="#1d4e6b"></path><path d="M1779.8 1600L2000 1378L1740.8 1439Z" fill="#1d4e6b" stroke="#1d4e6b"></path><path d="M0 1366L0 1600L188.2 1368Z" fill="#277297" stroke="#277297"></path><path d="M1779.8 1600L2000 1600L2000 1378Z" fill="#1d4e6b" stroke="#1d4e6b"></path></g></svg>